<svg xmlns="http://www.w3.org/2000/svg" width="97.612" height="18.308" viewBox="0 0 97.612 18.308">
  <g id="Group_1" data-name="Group 1" transform="translate(-25.817 -118.175)">
    <path id="Path_6" data-name="Path 6" d="M64.814-11.546a4.811,4.811,0,0,0-3.864-1.909,4.726,4.726,0,0,0-1.874.368,4.562,4.562,0,0,0-1.484,1,4.607,4.607,0,0,0-.978,1.507,4.945,4.945,0,0,0-.356,1.886,5.007,5.007,0,0,0,.356,1.909A4.644,4.644,0,0,0,57.6-5.267a4.636,4.636,0,0,0,1.483,1.012,4.586,4.586,0,0,0,1.84.368,5.22,5.22,0,0,0,3.887-1.84V-.391l-.46.161a13.309,13.309,0,0,1-1.932.54,9.362,9.362,0,0,1-1.771.172A8.929,8.929,0,0,1,57.213-.2a8.991,8.991,0,0,1-2.9-1.909A9.5,9.5,0,0,1,52.3-5.026a8.908,8.908,0,0,1-.759-3.691,8.866,8.866,0,0,1,.748-3.668,9.131,9.131,0,0,1,2-2.875,9.151,9.151,0,0,1,2.91-1.886,9.073,9.073,0,0,1,3.473-.678,9.512,9.512,0,0,1,2.035.218,12.347,12.347,0,0,1,2.1.679Zm5.8.9h6.509v-6.693h4.508V0H77.119V-7.153H70.61V0H66.1V-17.342H70.61ZM92.391-6.44l-2.024-5.773L88.343-6.44Zm1.2,3.427h-6.44L86.112,0H81.305l6.6-17.342h4.922L99.429,0H94.622Z" transform="translate(24 136)" fill="#4ca58d"/>
    <path id="Path_5" data-name="Path 5" d="M1.817,0V-17.342H6.325l8.326,10.6v-10.6h4.485V0H14.651L6.325-10.6V0ZM24.978-17.342v9.43q0,.759.057,1.553a4.255,4.255,0,0,0,.345,1.438,2.392,2.392,0,0,0,.908,1.046,3.205,3.205,0,0,0,1.748.4,3.145,3.145,0,0,0,1.737-.4,2.494,2.494,0,0,0,.908-1.046,4.087,4.087,0,0,0,.357-1.437q.058-.793.058-1.553v-9.43h4.485V-7.291q0,4.048-1.852,5.911T28.037.483q-3.841,0-5.7-1.863T20.47-7.291V-17.342Zm16.9,8.1-5.4-8.1h5.566l2.346,4.485,2.9-4.485h5.566l-5.727,8.1L53.59,0h-5.5L44.62-5.658,40.549,0H35.1Z" transform="translate(24 136)" fill="#35642d"/>
  </g>
</svg>
