<svg xmlns="http://www.w3.org/2000/svg" width="304.888" height="81.225" viewBox="0 0 304.888 81.225">
  <path id="Union_1" data-name="Union 1" d="M75.7,79.217a.627.627,0,0,1,.023-.193l.1-1.247q.072-.937.072-1.2a12.916,12.916,0,0,0-.12-1.44,12.732,12.732,0,0,1-.121-1.44q0-1.08.913-1.08.936,0,.936,1.08v.432a4.732,4.732,0,0,0-.024.553,3.684,3.684,0,0,0,1.152,2.856,4.44,4.44,0,0,0,3.12,1.056,4.516,4.516,0,0,0,2.9-.864,2.851,2.851,0,0,0,1.08-2.352q0-2.28-2.88-2.784l-1.368-.24a15.2,15.2,0,0,1-3.168-.84,3.649,3.649,0,0,1-1.643-1.428,4.029,4.029,0,0,1-.612-2.2A4.31,4.31,0,0,1,77.6,64.457a5.9,5.9,0,0,1,3.984-1.32,5.155,5.155,0,0,1,3.84,1.512v-.336q0-.937.743-.936.817,0,.816,1.031v.144q0,.049-.072.72a15.476,15.476,0,0,0-.072,1.608q0,.12.048.768l.072.96a1.786,1.786,0,0,1,.024.336q0,1.153-.888,1.152a.838.838,0,0,1-.936-.959v-.121l.049-.648q.023-.336.023-.527a2.786,2.786,0,0,0-.972-2.256,4.038,4.038,0,0,0-2.676-.816,3.763,3.763,0,0,0-2.484.769,2.544,2.544,0,0,0-.924,2.064,2.366,2.366,0,0,0,1.368,2.232,10.4,10.4,0,0,0,2.688.7,9.47,9.47,0,0,1,3.912,1.248,3.91,3.91,0,0,1,1.584,3.336,4.649,4.649,0,0,1-1.62,3.672A6.133,6.133,0,0,1,81.917,80.2a6.289,6.289,0,0,1-4.536-1.728,1.1,1.1,0,0,0,.024.216v.144q.047.383.048.5,0,.888-.84.888Q75.7,80.225,75.7,79.217Zm140.052-.384a5.467,5.467,0,0,0-3.132-1.368,1.552,1.552,0,0,0-1.68,1.008,2.3,2.3,0,0,1,.288-.048.615.615,0,0,1,.7.7q0,1.08-1.2,1.08a1.512,1.512,0,0,1-1.283-.684,3.08,3.08,0,0,1-.492-1.836q0-4.2,5.784-6.048l1.728-.552q2.9-.937,2.9-3.145a2.889,2.889,0,0,0-1.044-2.352,4.365,4.365,0,0,0-2.867-.864,5.014,5.014,0,0,0-2.664.648,2.517,2.517,0,0,0-1.248,1.776q1.3.1,1.3,1.129a1.436,1.436,0,0,1-.456,1.067,1.553,1.553,0,0,1-1.128.445,1.647,1.647,0,0,1-1.308-.564,2.162,2.162,0,0,1-.492-1.476,3.962,3.962,0,0,1,1.776-3.288,7.156,7.156,0,0,1,4.392-1.32,6.34,6.34,0,0,1,4.164,1.332,4.5,4.5,0,0,1,.84,5.988,4.7,4.7,0,0,1-2.172,1.656q-.432.169-2.88,1.008a20.769,20.769,0,0,0-2.808,1.152,4.686,4.686,0,0,0-1.32,1.032,2.883,2.883,0,0,0-.648,1.512,3.456,3.456,0,0,1,2.616-1.152,4.85,4.85,0,0,1,2.976,1.248,5.1,5.1,0,0,0,2.664,1.368,1.435,1.435,0,0,0,1.092-.445,1.592,1.592,0,0,0,.42-1.139,1.685,1.685,0,0,0-.1-.528,1.2,1.2,0,0,1-.864.384.9.9,0,0,1-1.032-1.008,1.163,1.163,0,0,1,.409-.913,1.575,1.575,0,0,1,1.08-.36,1.781,1.781,0,0,1,1.427.636,2.527,2.527,0,0,1,.54,1.692,3.7,3.7,0,0,1-.936,2.544,2.935,2.935,0,0,1-2.28,1.056A5.42,5.42,0,0,1,215.753,78.833Zm-16.248,0a5.467,5.467,0,0,0-3.132-1.368,1.552,1.552,0,0,0-1.68,1.008,2.274,2.274,0,0,1,.288-.048.615.615,0,0,1,.7.7q0,1.08-1.2,1.08a1.514,1.514,0,0,1-1.284-.684,3.087,3.087,0,0,1-.491-1.836q0-4.2,5.783-6.048l1.728-.552q2.9-.937,2.9-3.145a2.892,2.892,0,0,0-1.044-2.352,4.368,4.368,0,0,0-2.868-.864,5.016,5.016,0,0,0-2.664.648,2.518,2.518,0,0,0-1.247,1.776q1.3.1,1.3,1.129a1.436,1.436,0,0,1-.456,1.067,1.555,1.555,0,0,1-1.128.445,1.651,1.651,0,0,1-1.309-.564,2.166,2.166,0,0,1-.491-1.476,3.959,3.959,0,0,1,1.776-3.288,7.155,7.155,0,0,1,4.392-1.32,6.341,6.341,0,0,1,4.164,1.332,4.5,4.5,0,0,1,.84,5.988,4.7,4.7,0,0,1-2.172,1.656q-.432.169-2.88,1.008a20.77,20.77,0,0,0-2.808,1.152A4.685,4.685,0,0,0,195.2,75.3a2.883,2.883,0,0,0-.648,1.512,3.456,3.456,0,0,1,2.616-1.152,4.847,4.847,0,0,1,2.975,1.248,5.107,5.107,0,0,0,2.664,1.368,1.437,1.437,0,0,0,1.093-.445,1.591,1.591,0,0,0,.419-1.139,1.682,1.682,0,0,0-.1-.528,1.2,1.2,0,0,1-.864.384.9.9,0,0,1-1.032-1.008,1.165,1.165,0,0,1,.408-.913,1.575,1.575,0,0,1,1.08-.36,1.782,1.782,0,0,1,1.428.636,2.527,2.527,0,0,1,.54,1.692,3.707,3.707,0,0,1-.936,2.544,2.935,2.935,0,0,1-2.28,1.056A5.418,5.418,0,0,1,199.506,78.833ZM178.1,77.957a9.854,9.854,0,0,1-1.74-6.18,10.011,10.011,0,0,1,1.812-6.324,5.953,5.953,0,0,1,4.956-2.316,5.7,5.7,0,0,1,4.739,2.22,9.492,9.492,0,0,1,1.741,6.012,10.44,10.44,0,0,1-1.8,6.467,5.851,5.851,0,0,1-4.92,2.364A5.725,5.725,0,0,1,178.1,77.957Zm.4-6.444v.36a8.68,8.68,0,0,0,1.152,4.86,3.7,3.7,0,0,0,3.264,1.715,3.837,3.837,0,0,0,3.384-1.872,9.362,9.362,0,0,0,1.224-5.16,8.5,8.5,0,0,0-1.152-4.824,3.752,3.752,0,0,0-3.289-1.68Q178.661,64.912,178.493,71.513Zm-11.484,7.32a5.467,5.467,0,0,0-3.132-1.368,1.552,1.552,0,0,0-1.68,1.008,2.3,2.3,0,0,1,.288-.048.615.615,0,0,1,.7.7q0,1.08-1.2,1.08a1.512,1.512,0,0,1-1.283-.684,3.08,3.08,0,0,1-.492-1.836q0-4.2,5.784-6.048l1.728-.552q2.9-.937,2.9-3.145a2.889,2.889,0,0,0-1.044-2.352,4.365,4.365,0,0,0-2.867-.864,5.014,5.014,0,0,0-2.664.648,2.517,2.517,0,0,0-1.248,1.776q1.3.1,1.3,1.129a1.436,1.436,0,0,1-.456,1.067,1.553,1.553,0,0,1-1.128.445,1.647,1.647,0,0,1-1.308-.564,2.162,2.162,0,0,1-.492-1.476,3.962,3.962,0,0,1,1.776-3.288,7.156,7.156,0,0,1,4.392-1.32,6.34,6.34,0,0,1,4.164,1.332,4.5,4.5,0,0,1,.84,5.988,4.7,4.7,0,0,1-2.172,1.656q-.432.169-2.88,1.008a20.769,20.769,0,0,0-2.808,1.152A4.685,4.685,0,0,0,162.7,75.3a2.883,2.883,0,0,0-.648,1.512,3.456,3.456,0,0,1,2.616-1.152,4.85,4.85,0,0,1,2.976,1.248,5.1,5.1,0,0,0,2.664,1.368,1.435,1.435,0,0,0,1.092-.445,1.592,1.592,0,0,0,.42-1.139,1.685,1.685,0,0,0-.1-.528,1.2,1.2,0,0,1-.864.384.9.9,0,0,1-1.032-1.008,1.163,1.163,0,0,1,.409-.913,1.575,1.575,0,0,1,1.08-.36,1.781,1.781,0,0,1,1.427.636,2.527,2.527,0,0,1,.54,1.692,3.7,3.7,0,0,1-.936,2.544,2.935,2.935,0,0,1-2.28,1.056A5.42,5.42,0,0,1,167.009,78.833Zm-45.384-.912a9.08,9.08,0,0,1-1.931-6.072,9.6,9.6,0,0,1,1.98-6.312,6.433,6.433,0,0,1,5.22-2.4,5.367,5.367,0,0,1,4.343,2.04l-.023-.265v-.264c-.016-.1-.024-.152-.024-.168-.032-.352-.048-.512-.048-.48q0-.815.768-.816.815,0,.816,1.008,0,.193-.1,1.152-.12,1.2-.12,1.656a12.236,12.236,0,0,0,.072,1.32l.1.912v.24q0,1.08-.864,1.08-.936,0-.912-1.032l.024-.864a3.569,3.569,0,0,0-1.08-2.808,4.092,4.092,0,0,0-2.952-1.08,4.365,4.365,0,0,0-3.721,1.824,8.348,8.348,0,0,0-1.344,5.04,8.371,8.371,0,0,0,1.38,5.124,4.906,4.906,0,0,0,6.264,1.188,3.542,3.542,0,0,0,1.5-1.7,5,5,0,0,0,.288-1.872q0-1.1.912-1.1.984,0,.985,1.1a5.446,5.446,0,0,1-1.777,4.2A6.507,6.507,0,0,1,126.8,80.2,6.435,6.435,0,0,1,121.625,77.921Zm-9.779.48-6.288-13.08v11.16q0,1.8,1.224,1.8a4.182,4.182,0,0,0,.576-.06,4.168,4.168,0,0,1,.576-.06.69.69,0,0,1,.768.792q0,.841-1.08.841h-.144a1,1,0,0,0-.167-.024l-.985-.144a10.558,10.558,0,0,0-1.535-.12,13.79,13.79,0,0,0-1.608.12l-1.176.144a.991.991,0,0,0-.167.024h-.193q-1.031,0-1.031-.841a.668.668,0,0,1,.768-.743c.08,0,.3.015.648.048a1.924,1.924,0,0,0,.5.072q1.224,0,1.224-1.8v-1.68l.024-2.111V70.673l-.024-3.792q0-1.8-1.248-1.8a3.47,3.47,0,0,0-.48.048,4.718,4.718,0,0,1-.672.072.689.689,0,0,1-.768-.792q0-.84,1.032-.84.143,0,.383.024,1.2.12,1.849.12.359,0,1.08-.072t1.08-.072a.979.979,0,0,1,.984.5l.264.576,6.457,13.416V68.393q0-1.872-.024-2.064-.216-1.249-1.2-1.248a4.018,4.018,0,0,0-.576.06,4.147,4.147,0,0,1-.576.059.779.779,0,0,1-.769-.768q0-.864,1.08-.864a1.415,1.415,0,0,1,.312.024l1.08.144a10.211,10.211,0,0,0,1.344.1,12.535,12.535,0,0,0,1.656-.144c.24-.032.52-.072.841-.12a1,1,0,0,0,.167-.024h.168q1.031,0,1.032.841,0,.815-.96.815a1.179,1.179,0,0,1-.264-.023h-.24q-.72,0-.936.311a3.011,3.011,0,0,0-.264,1.368l-.049,1.368-.048,2.448v6.408a5.2,5.2,0,0,1-.372,2.328,1.345,1.345,0,0,1-1.284.672Q112.662,80.081,111.846,78.4Zm35.879,1.344q-.288-.023-1.056-.023.167,0-1.872-.049t-3.528-.048q-2.256,0-4.416.144a1.1,1.1,0,0,0-.216.024h-.144q-1.007,0-1.008-.864a.669.669,0,0,1,.744-.769q.12,0,.648.049a1.924,1.924,0,0,0,.5.072q1.224,0,1.224-1.8V66.856q0-1.775-1.224-1.776a1.991,1.991,0,0,0-.5.048,3.573,3.573,0,0,1-.648.072.7.7,0,0,1-.528-.228.789.789,0,0,1-.216-.564q0-.84,1.008-.84c.016,0,.136.008.36.024q3.6.239,3.361.239h.239l5.784-.167q.167,0,1.248-.072.383-.024.7-.024,1.247,0,1.248,1.1,0,.192-.1,1.224-.072.768-.072,1.416a9.8,9.8,0,0,0,.048,1.176,8.384,8.384,0,0,1,.1,1.031q0,.913-.864.913t-.864-1.273V67.913q0-2.017-.84-2.376a11.214,11.214,0,0,0-3.217-.265,14.82,14.82,0,0,0-2.016.072,1.316,1.316,0,0,0-1.031,1.44v1.608c-.016.224-.024.384-.024.48v.312q0,.96.432,1.1a2.4,2.4,0,0,0,.576.048h.984q1.512,0,1.512-1.032a4.884,4.884,0,0,0-.072-.743,5.33,5.33,0,0,1-.072-.816q0-.96.864-.96t.864,1.032q0,.192-.167,1.488a15.2,15.2,0,0,0-.144,1.944q0,.481.1,1.7c.016.128.056.408.121.84a6.613,6.613,0,0,1,.072.84.764.764,0,0,1-.864.864q-.841,0-.841-1.008a6.93,6.93,0,0,1,.06-.768,7.161,7.161,0,0,0,.06-.768q0-1.033-1.368-1.032h-1.08q-.7,0-.852.24a2.183,2.183,0,0,0-.156,1.031v1.489c0,.256.007.6.023,1.031q.024.792.024,1.057.024.96.384,1.2a2.83,2.83,0,0,0,1.247.168h3.264a3.261,3.261,0,0,0,1.944-.42,1.924,1.924,0,0,0,.528-1.572q0-.359-.036-1.067t-.036-1.068q0-1.08.864-1.08.911,0,.912,1.1,0,.432-.048,1.319t-.049,1.32c0,.224.013.556.036,1s.036.771.036,1a.987.987,0,0,1-1.1,1.129Q148.3,79.793,147.725,79.744Zm-50.207.049a.707.707,0,0,0-.168-.024L96.1,79.577a8.688,8.688,0,0,0-1.319-.1,12.091,12.091,0,0,0-1.8.12l-1.1.168a1,1,0,0,0-.168.024h-.192q-1.033,0-1.032-.864a.669.669,0,0,1,.744-.769q.12,0,.648.049a1.924,1.924,0,0,0,.5.072q1.224,0,1.224-1.8V66.856q0-1.775-1.224-1.776a1.991,1.991,0,0,0-.5.048,3.573,3.573,0,0,1-.648.072.7.7,0,0,1-.528-.228.789.789,0,0,1-.216-.564q0-.84,1.057-.84a2.72,2.72,0,0,1,.336.024l1.272.167a11.283,11.283,0,0,0,1.489.1,12.237,12.237,0,0,0,1.632-.12l1.08-.144a2.72,2.72,0,0,1,.336-.024q1.056,0,1.057.84a.789.789,0,0,1-.216.564A.7.7,0,0,1,98,65.2a3.875,3.875,0,0,1-.648-.072,2,2,0,0,0-.5-.048q-1.224,0-1.224,1.776v9.625q0,1.8,1.224,1.8a3.432,3.432,0,0,0,.5-.049A4.86,4.86,0,0,1,98,78.16a.669.669,0,0,1,.744.769q0,.864-1.057.864Zm135.36-5.688q-.961,0-.96-.841t.96-.84h14.711q.96,0,.96.816,0,.864-.96.864Zm-183.1,0q-.961,0-.96-.841t.96-.84H64.493q.96,0,.96.816,0,.864-.96.864ZM102.775,53.51a20.1,20.1,0,0,1-5.808-2.437,28.891,28.891,0,0,1-6.818-6.055,42.48,42.48,0,0,1-5.6-8.722l-2.019-4.227a23.383,23.383,0,0,0-2.551-4.324A5.593,5.593,0,0,0,77.352,25.9a13.894,13.894,0,0,0-4.151-.5H66.574V41.056a21.731,21.731,0,0,0,.4,4.875,6.549,6.549,0,0,0,1.543,2.857,10.238,10.238,0,0,0,6.017,2.7v1.18H50.312v-1.18a8.961,8.961,0,0,0,5.98-3.162q1.447-1.828,1.447-7.275V12.3a23.436,23.436,0,0,0-.382-5.027,5.89,5.89,0,0,0-1.409-2.667,9.842,9.842,0,0,0-5.637-2.741V.686c.355.025.672.038.952.038l3.352.191q2.018.113,4.685.114,4.227,0,7.655-.343L72.287.229Q74.8,0,77.238,0a32.237,32.237,0,0,1,8.036.914,18.209,18.209,0,0,1,5.98,2.628,12.044,12.044,0,0,1,3.771,4.208,11.653,11.653,0,0,1,1.333,5.579,9.773,9.773,0,0,1-3.524,8.017q-3.522,2.875-10.416,3.37a21.132,21.132,0,0,1,7.217,4.589,53.385,53.385,0,0,1,7.026,9.5,75.939,75.939,0,0,0,7.275,10.283,15.411,15.411,0,0,0,5.9,4.113v1.067A34.075,34.075,0,0,1,102.775,53.51ZM82.228,28.564q.533.838,1.9,3.542.418.8.819,1.562t.78,1.6q4.076,7.96,8.76,12.092a22.85,22.85,0,0,0,10.969,5.351,30.924,30.924,0,0,1-3.276-2.019,27.606,27.606,0,0,1-2.932-2.551,40.02,40.02,0,0,1-3.1-3.694q-1.123-1.562-3.713-5.828a65.888,65.888,0,0,0-4.4-6.589,22.522,22.522,0,0,0-3.942-4.037,19.054,19.054,0,0,0-4.379-2.514A20.385,20.385,0,0,1,82.228,28.564ZM57.129,3.732A5.52,5.52,0,0,1,58.766,5.2a3.434,3.434,0,0,1,.381,1.771q.039.648.039,1.257v36.9q0,.61-.039,1.257a3.389,3.389,0,0,1-.342,1.732,6.676,6.676,0,0,1-1.676,1.5l-1.486,1.1H66.765l-1.485-1.1A6.925,6.925,0,0,1,63.623,48.1a3.249,3.249,0,0,1-.362-1.714c0-.406-.006-.68-.019-.819s-.02-.285-.02-.438V8.227c0-.153.006-.305.02-.457s.019-.419.019-.8a3.38,3.38,0,0,1,.323-1.638,5.467,5.467,0,0,1,1.428-1.409l.267-.191,2.132-1.638-1.371.076Q62.576,2.4,59.8,2.4q-1.715,0-4.685-.114ZM85.274,4.8a11.222,11.222,0,0,1,2.247,3.713,12.9,12.9,0,0,1,.761,4.475,12.748,12.748,0,0,1-1.637,6.8,11.308,11.308,0,0,1-5.218,4.246,20.027,20.027,0,0,0,4.666-1.637,13.421,13.421,0,0,0,3.485-2.438,9.765,9.765,0,0,0,2.114-3.123,9.271,9.271,0,0,0,.743-3.656,10.094,10.094,0,0,0-2.971-7.236,13.968,13.968,0,0,0-7.845-3.961A13.724,13.724,0,0,1,85.274,4.8ZM67.6,4.8a12.679,12.679,0,0,0-1.029,5.865V23.88h6.818q5.9,0,8.493-1.333a8.34,8.34,0,0,0,3.637-3.676,12.1,12.1,0,0,0,1.314-5.731,11.8,11.8,0,0,0-1.542-6.018,10.633,10.633,0,0,0-4.3-4.132,13.237,13.237,0,0,0-6.3-1.466Q69.431,1.524,67.6,4.8ZM218.537,53.93,203.189,13.521,188.564,53.93h-.99L171.12,12.492a40.151,40.151,0,0,0-2.8-5.884A10.284,10.284,0,0,0,165.5,3.466a11.123,11.123,0,0,0-3.866-1.6V.686h24.68V1.867a19.01,19.01,0,0,0-4.685.685,3.547,3.547,0,0,0-2.78,3.58,12.3,12.3,0,0,0,.952,4.152L191.724,41.4,206.388.686h1.142L223.07,41.209l10.359-26.166A16.737,16.737,0,0,0,234.838,9.1q0-5.675-8.76-7.236V.686H246.34V1.828a14.449,14.449,0,0,0-4.514,2.59,18.181,18.181,0,0,0-3.713,4.437,46.777,46.777,0,0,0-3.313,6.722L219.566,53.93Zm-50.026-49.4a18.188,18.188,0,0,1,1.9,2.971q.9,1.713,2.038,4.57L188.069,51.53l1.9-5.408L176.414,10.816a14.658,14.658,0,0,1-1.105-4.532,3.756,3.756,0,0,1,.609-2.132,8.72,8.72,0,0,1,2.133-2.019H166.093A16.062,16.062,0,0,1,168.512,4.532Zm35.477,7.007,15.234,39.953,2.094-5.409L206.045,5.789Zm30.868-6.912a7.392,7.392,0,0,1,1.314,3.56,17.833,17.833,0,0,1,4.875-6.055h-9.6A9.563,9.563,0,0,1,234.857,4.628ZM23.956,53.015q-5.789-.456-7.922-.571-3.467-.19-6.323-.19-2.246,0-5.027.152l-3.923.229L0,52.673v-1.18a8.888,8.888,0,0,0,5.9-3.162q1.409-1.866,1.409-7.275V12.3a23.465,23.465,0,0,0-.381-4.894,6.166,6.166,0,0,0-1.409-2.8A8.883,8.883,0,0,0,0,1.867V.686L.609.724l4.57.305q2.438.151,4.8.152,1.98,0,4.685-.172T18.777.686L22.623.266A38.672,38.672,0,0,1,26.888.038a25.7,25.7,0,0,1,7.1.914,16.472,16.472,0,0,1,5.427,2.609,11.807,11.807,0,0,1,3.466,4.075A11.4,11.4,0,0,1,44.1,12.911a10.645,10.645,0,0,1-2.838,7.541A16.49,16.49,0,0,1,33.02,24.87a20.012,20.012,0,0,1,7.923,2.4,13.932,13.932,0,0,1,5.275,5.085,13.679,13.679,0,0,1,1.847,7.065,13.052,13.052,0,0,1-1.219,5.732,12.477,12.477,0,0,1-3.618,4.417,16.449,16.449,0,0,1-5.79,2.838,27.406,27.406,0,0,1-7.427.952Q27.918,53.358,23.956,53.015ZM40.1,38.924q0,8.911-7.694,12.378a17.472,17.472,0,0,0,6.285-2.19,11.74,11.74,0,0,0,4.171-4.094,10.562,10.562,0,0,0,1.466-5.485,11.47,11.47,0,0,0-2.857-7.655,17.462,17.462,0,0,0-8-5.065A13.651,13.651,0,0,1,40.1,38.924Zm-24.07,3.2q0,4.952,2.266,6.989t7.712,2.038q6.209,0,9.446-3.542a12.447,12.447,0,0,0,3.2-8.722,14.517,14.517,0,0,0-.552-4.094,11.82,11.82,0,0,0-1.638-3.447,11.389,11.389,0,0,0-2.609-2.685,11.024,11.024,0,0,0-3.465-1.695,26.4,26.4,0,0,0-7.846-.876H16.034Zm-.877,8.456.914.076-1.333-1.029A6.944,6.944,0,0,1,13.082,48.1a3.249,3.249,0,0,1-.362-1.714V45.131a3.458,3.458,0,0,0-.019-.456,1.208,1.208,0,0,1-.019-.191V8.874a1.4,1.4,0,0,1,.019-.229,3.044,3.044,0,0,0,.019-.418V6.97a4.664,4.664,0,0,1,.133-1.256,2.085,2.085,0,0,1,.515-.857,11.033,11.033,0,0,1,1.371-1.124l2.019-1.524-1.372.114q-2.932.267-5.142.267a41.155,41.155,0,0,1-5.56-.419L6.7,3.732A7.137,7.137,0,0,1,8.379,5.275,3.286,3.286,0,0,1,8.722,6.97V46.389a3.286,3.286,0,0,1-.343,1.695A7.137,7.137,0,0,1,6.7,49.626L5.37,50.655a41.159,41.159,0,0,1,5.027-.382Q12.226,50.273,15.158,50.578ZM19.69,2.59a6.613,6.613,0,0,0-2.78,2.628,12.624,12.624,0,0,0-.876,5.446V24.6H22.2q5.485,0,8.379-2.209a10.124,10.124,0,0,0,3.161-3.942,12.093,12.093,0,0,0,1.181-5.237,12.378,12.378,0,0,0-1.408-5.941,10.377,10.377,0,0,0-3.923-4.114,10.873,10.873,0,0,0-5.637-1.485A9.277,9.277,0,0,0,19.69,2.59ZM36.372,13.026q0,7.312-5.712,10.854a14.842,14.842,0,0,0,7.217-4.265,10.173,10.173,0,0,0,2.533-6.932,9.692,9.692,0,0,0-2.551-6.836,14.734,14.734,0,0,0-7.541-3.98Q36.373,6.131,36.372,13.026ZM267.782,52.444q-3.657-.342-7.123-.342-2.437,0-5.408.152l-5.18.381q-.418,0-.952.038l.114-1.18a8.959,8.959,0,0,0,5.98-3.162q1.447-1.828,1.447-7.275V12.3a24.311,24.311,0,0,0-.362-4.894,6.079,6.079,0,0,0-1.428-2.8,9.274,9.274,0,0,0-5.637-2.741V.686q1.447.076,1.485.076l4.457.229q2.171.115,4.646.114,4.456,0,9.674-.457,4.837-.381,7.16-.381A30.819,30.819,0,0,1,287.7,2.152a25.092,25.092,0,0,1,8.589,5.389,24.129,24.129,0,0,1,5.617,8.34,27.786,27.786,0,0,1,1.981,10.626,27.911,27.911,0,0,1-2.038,10.76,23.421,23.421,0,0,1-5.827,8.417A26.112,26.112,0,0,1,287,51.035,34.6,34.6,0,0,1,275.324,52.9Q272.962,52.9,267.782,52.444ZM285.74,4.361a19.222,19.222,0,0,1,3.2,2.723,22.8,22.8,0,0,1,2.418,3.047,28.189,28.189,0,0,1,4.38,15.844,35.209,35.209,0,0,1-1.219,9.331,25.359,25.359,0,0,1-3.5,7.769,18.29,18.29,0,0,1-4.476,4.666,26.122,26.122,0,0,1-6.341,3.181,27.632,27.632,0,0,0,7.541-2.857,25.073,25.073,0,0,0,5.942-4.875,24.472,24.472,0,0,0,6.284-16.8,26.42,26.42,0,0,0-2.209-10.816A23.25,23.25,0,0,0,291.415,7.1a24.785,24.785,0,0,0-9.541-4.97A29.386,29.386,0,0,1,285.74,4.361Zm-18.053-.647q-2.114,2-2.114,6.3l-.076,29.44a20.937,20.937,0,0,0,.876,7.123,6.291,6.291,0,0,0,2.838,3.18,9.692,9.692,0,0,0,4.818,1.123,18.108,18.108,0,0,0,8.074-1.809,19.219,19.219,0,0,0,6.456-5.18,23.6,23.6,0,0,0,4.208-7.979,32.885,32.885,0,0,0,1.447-9.9,29.263,29.263,0,0,0-2.57-12.492,20.924,20.924,0,0,0-7.16-8.664,17.692,17.692,0,0,0-10.226-3.143Q269.8,1.714,267.687,3.713Zm-11.635.019A5.924,5.924,0,0,1,257.67,5.2a3.293,3.293,0,0,1,.4,1.771q0,.381.019.686c.013.2.019.393.019.571v36.9c0,.153-.006.33-.019.534s-.019.445-.019.724a3.379,3.379,0,0,1-.343,1.732,6.676,6.676,0,0,1-1.676,1.5l-1.485,1.1a58.6,58.6,0,0,1,5.979-.343,47.888,47.888,0,0,1,5.142.267L264.2,49.626a5.422,5.422,0,0,1-1.58-1.447,3.276,3.276,0,0,1-.438-1.79q-.038-.648-.038-1.257V8.227q0-.61.038-1.257a3.249,3.249,0,0,1,.362-1.714A6.943,6.943,0,0,1,264.2,3.732l2.019-1.485q-3.352.3-5.79.3-2.284,0-5.712-.266l-.686-.038Zm-144.46,48.94v-1.18a8.961,8.961,0,0,0,5.98-3.162q1.447-1.828,1.447-7.275V12.3a23.51,23.51,0,0,0-.381-5.027,5.883,5.883,0,0,0-1.409-2.667,9.276,9.276,0,0,0-5.637-2.741V.686h43.341l1.448,14.168h-1.219Q153.181,8.3,149.278,5.2a15.817,15.817,0,0,0-10.149-3.1H137q-4.99,0-7.065,1.924t-2.075,6.417V23.385h5.065q5.751,0,8.379-1.809t3.618-6.532h1.142V34.315h-1.142a17.336,17.336,0,0,0-2.038-5.808,6.835,6.835,0,0,0-3.58-2.819,19.3,19.3,0,0,0-6.265-.819h-5.18V41.361a18.246,18.246,0,0,0,.7,5.77,4.581,4.581,0,0,0,2.476,2.8,12.4,12.4,0,0,0,4.971.8h3.5a17.04,17.04,0,0,0,9.826-3.2,47.169,47.169,0,0,0,10.093-9.978l.3-.418h1.334l-4.495,15.538Zm41.685-6.265a23.482,23.482,0,0,1-3.047,2.343,34.872,34.872,0,0,1-3.447,1.98h7.085L156,43.646Q154.629,45.171,153.277,46.408ZM118.409,3.732a6.944,6.944,0,0,1,1.657,1.524,3.249,3.249,0,0,1,.362,1.714q.038.648.038,1.257v36.9q0,.61-.038,1.257a3.379,3.379,0,0,1-.343,1.732,6.676,6.676,0,0,1-1.676,1.5l-1.486,1.1h11.121l-1.485-1.1A6.944,6.944,0,0,1,124.9,48.1a3.249,3.249,0,0,1-.362-1.714c0-.406-.006-.68-.019-.819s-.019-.285-.019-.438V8.227c0-.153.006-.305.019-.457s.019-.419.019-.8a3.3,3.3,0,0,1,.4-1.771,5.93,5.93,0,0,1,1.619-1.466l2.171-1.6H116.239ZM141.661,23.1a18.4,18.4,0,0,1-2.457,1.085,10.089,10.089,0,0,1,4.114,2.475V21.747A11.933,11.933,0,0,1,141.661,23.1ZM150.02,4a17.43,17.43,0,0,1,2.9,3.162l-.838-5.066h-5.485A14.218,14.218,0,0,1,150.02,4Z" transform="translate(0.5 0.5)" fill="#836940" stroke="rgba(0,0,0,0)" stroke-miterlimit="10" stroke-width="1"/>
</svg>
