<svg xmlns="http://www.w3.org/2000/svg" width="262.755" height="73.64" viewBox="0 0 262.755 73.64">
  <path id="Path_3" data-name="Path 3" d="M187.691,73.64a4.081,4.081,0,0,1-2.295-1.026,4.114,4.114,0,0,0-2.349-1.026,1.169,1.169,0,0,0-1.26.756,1.893,1.893,0,0,1,.216-.036.463.463,0,0,1,.522.522c0,.537-.3.81-.9.81a1.139,1.139,0,0,1-.963-.513,2.324,2.324,0,0,1-.369-1.377,3.8,3.8,0,0,1,1.085-2.709,7.686,7.686,0,0,1,3.253-1.827l1.3-.414c1.445-.466,2.178-1.259,2.178-2.358a2.177,2.177,0,0,0-.783-1.764,3.29,3.29,0,0,0-2.151-.648,3.781,3.781,0,0,0-2,.486,1.9,1.9,0,0,0-.936,1.332c.645.048.972.333.972.846a1.081,1.081,0,0,1-.342.8,1.168,1.168,0,0,1-.846.333,1.24,1.24,0,0,1-.981-.423,1.631,1.631,0,0,1-.369-1.107A2.985,2.985,0,0,1,182,61.832a5.4,5.4,0,0,1,3.294-.99,4.777,4.777,0,0,1,3.123,1,3.2,3.2,0,0,1,1.215,2.583,3.238,3.238,0,0,1-.585,1.908,3.534,3.534,0,0,1-1.629,1.242c-.215.084-.942.339-2.16.756a15.817,15.817,0,0,0-2.106.864,3.534,3.534,0,0,0-.99.774,2.179,2.179,0,0,0-.486,1.134,2.6,2.6,0,0,1,1.962-.864,3.657,3.657,0,0,1,2.232.936,3.846,3.846,0,0,0,2,1.026,1.079,1.079,0,0,0,.819-.333,1.2,1.2,0,0,0,.315-.855,1.276,1.276,0,0,0-.072-.4.9.9,0,0,1-.648.288.678.678,0,0,1-.774-.756.875.875,0,0,1,.306-.684,1.186,1.186,0,0,1,.81-.27,1.342,1.342,0,0,1,1.071.477,1.905,1.905,0,0,1,.4,1.269,2.787,2.787,0,0,1-.7,1.908A2.21,2.21,0,0,1,187.691,73.64Zm-12.186,0a4.081,4.081,0,0,1-2.295-1.026,4.114,4.114,0,0,0-2.349-1.026,1.169,1.169,0,0,0-1.26.756,1.893,1.893,0,0,1,.216-.036.463.463,0,0,1,.522.522c0,.537-.3.81-.9.81a1.139,1.139,0,0,1-.963-.513,2.324,2.324,0,0,1-.369-1.377,3.8,3.8,0,0,1,1.085-2.709,7.686,7.686,0,0,1,3.253-1.827l1.3-.414c1.445-.466,2.178-1.259,2.178-2.358a2.177,2.177,0,0,0-.783-1.764,3.29,3.29,0,0,0-2.151-.648,3.781,3.781,0,0,0-2,.486,1.9,1.9,0,0,0-.936,1.332c.645.048.972.333.972.846a1.081,1.081,0,0,1-.342.8,1.168,1.168,0,0,1-.846.333,1.24,1.24,0,0,1-.981-.423,1.631,1.631,0,0,1-.369-1.107,2.985,2.985,0,0,1,1.332-2.466,5.4,5.4,0,0,1,3.294-.99,4.777,4.777,0,0,1,3.123,1,3.2,3.2,0,0,1,1.215,2.583,3.238,3.238,0,0,1-.585,1.908,3.534,3.534,0,0,1-1.629,1.242c-.215.084-.942.339-2.16.756a15.815,15.815,0,0,0-2.106.864,3.534,3.534,0,0,0-.99.774,2.179,2.179,0,0,0-.486,1.134,2.6,2.6,0,0,1,1.962-.864,3.657,3.657,0,0,1,2.232.936,3.846,3.846,0,0,0,2,1.026,1.079,1.079,0,0,0,.819-.333,1.2,1.2,0,0,0,.315-.855,1.276,1.276,0,0,0-.072-.4.9.9,0,0,1-.648.288.678.678,0,0,1-.774-.756.875.875,0,0,1,.306-.684,1.186,1.186,0,0,1,.81-.27,1.342,1.342,0,0,1,1.071.477,1.905,1.905,0,0,1,.4,1.269,2.787,2.787,0,0,1-.7,1.908A2.21,2.21,0,0,1,175.5,73.64Zm-14.76,0a4.312,4.312,0,0,1-3.591-1.683,7.419,7.419,0,0,1-1.305-4.635,7.539,7.539,0,0,1,1.359-4.743,4.484,4.484,0,0,1,3.717-1.737,4.294,4.294,0,0,1,3.555,1.665,7.153,7.153,0,0,1,1.3,4.509,7.864,7.864,0,0,1-1.35,4.851A4.4,4.4,0,0,1,160.745,73.64Zm.144-11.466a2.88,2.88,0,0,0-2.516,1.238,6.879,6.879,0,0,0-.923,3.712v.27a6.537,6.537,0,0,0,.864,3.645,2.789,2.789,0,0,0,2.448,1.287,2.889,2.889,0,0,0,2.538-1.4,7.052,7.052,0,0,0,.918-3.87,6.4,6.4,0,0,0-.864-3.618A2.824,2.824,0,0,0,160.889,62.174ZM151.133,73.64a4.081,4.081,0,0,1-2.295-1.026,4.114,4.114,0,0,0-2.349-1.026,1.169,1.169,0,0,0-1.26.756,1.893,1.893,0,0,1,.216-.036.463.463,0,0,1,.522.522c0,.537-.3.81-.9.81a1.139,1.139,0,0,1-.963-.513,2.324,2.324,0,0,1-.369-1.377,3.8,3.8,0,0,1,1.085-2.709,7.686,7.686,0,0,1,3.253-1.827l1.3-.414c1.445-.466,2.178-1.259,2.178-2.358a2.177,2.177,0,0,0-.783-1.764,3.29,3.29,0,0,0-2.151-.648,3.781,3.781,0,0,0-2,.486,1.9,1.9,0,0,0-.936,1.332c.645.048.972.333.972.846a1.081,1.081,0,0,1-.342.8,1.168,1.168,0,0,1-.846.333,1.24,1.24,0,0,1-.981-.423,1.631,1.631,0,0,1-.369-1.107,2.985,2.985,0,0,1,1.332-2.466,5.4,5.4,0,0,1,3.294-.99,4.777,4.777,0,0,1,3.123,1,3.2,3.2,0,0,1,1.215,2.583,3.238,3.238,0,0,1-.585,1.908,3.534,3.534,0,0,1-1.629,1.242c-.215.084-.942.339-2.16.756a15.816,15.816,0,0,0-2.106.864,3.534,3.534,0,0,0-.99.774,2.179,2.179,0,0,0-.486,1.134,2.6,2.6,0,0,1,1.962-.864,3.657,3.657,0,0,1,2.232.936,3.846,3.846,0,0,0,2,1.026,1.079,1.079,0,0,0,.819-.333,1.2,1.2,0,0,0,.315-.855,1.276,1.276,0,0,0-.072-.4.9.9,0,0,1-.648.288.678.678,0,0,1-.774-.756.875.875,0,0,1,.306-.684,1.186,1.186,0,0,1,.81-.27,1.342,1.342,0,0,1,1.071.477,1.905,1.905,0,0,1,.405,1.269,2.787,2.787,0,0,1-.7,1.908A2.21,2.21,0,0,1,151.133,73.64Zm-33.282-.162c-.621,0-1.015-.412-1.17-1.224l-1.818-9.522-2,9.774c-.132.645-.477.972-1.026.972s-.925-.333-1.08-.99l-2.142-8.964a2.017,2.017,0,0,0-.4-.927,1.05,1.05,0,0,0-.765-.243h-.126l-.4.036a.519.519,0,0,1-.576-.594.558.558,0,0,1,.63-.63,3.564,3.564,0,0,1,.576.054,11.543,11.543,0,0,0,1.89.162c.291,0,.958-.061,1.98-.18a4.018,4.018,0,0,1,.522-.036c.43,0,.648.2.648.594,0,.43-.266.648-.792.648-.11,0-.277-.012-.5-.036s-.391-.036-.5-.036c-.418,0-.63.2-.63.594a2.787,2.787,0,0,0,.054.5l.108.576,1.476,7.614,1.854-9.36c.155-.812.561-1.224,1.206-1.224a1.155,1.155,0,0,1,1.224,1.08l1.8,9.63,1.53-7.47a6.57,6.57,0,0,0,.162-1.206.662.662,0,0,0-.756-.738c-.1,0-.256.006-.468.018-.191.012-.353.018-.468.018-.514,0-.774-.206-.774-.612s.254-.594.756-.594a5.251,5.251,0,0,1,.594.036c.974.119,1.628.18,1.944.18a7.851,7.851,0,0,0,1.071-.108,7.851,7.851,0,0,1,1.071-.108c.442,0,.666.212.666.63,0,.382-.218.576-.648.576a2.877,2.877,0,0,1-.324-.027,2.879,2.879,0,0,0-.324-.027.594.594,0,0,0-.549.288,5.6,5.6,0,0,0-.4,1.3l-2.016,8.586A1.1,1.1,0,0,1,117.851,73.478ZM80.9,73.335h0c-.512,0-.772-.219-.772-.649a.5.5,0,0,1,.558-.576c.056,0,.2.011.486.036a1.446,1.446,0,0,0,.378.054c.609,0,.918-.454.918-1.35V63.632c0-.9-.309-1.35-.918-1.35a3.089,3.089,0,0,0-.432.045,2.976,2.976,0,0,1-.432.045.526.526,0,0,1-.4-.171.569.569,0,0,1-.162-.405c0-.418.266-.63.792-.63.046,0,.128.006.252.018l.918.09c.239.024.534.036.9.036s.794-.012,1.242-.036l1.368-.072c.472-.024.884-.036,1.26-.036a4.879,4.879,0,0,1,2.97.756,2.685,2.685,0,0,1,.99,2.268,2.446,2.446,0,0,1-1.368,2.43,6.2,6.2,0,0,1-1.332.432,2.172,2.172,0,0,1,1.467.792,3.615,3.615,0,0,1,.4,1.962v.828a.985.985,0,0,0-.018.216c0,.86.279,1.3.828,1.3s.846-.521.846-1.548v-.54l-.018-.45v-.252a2.438,2.438,0,0,1,.072-.72.56.56,0,0,1,.558-.306c.43,0,.648.254.648.756,0,.009,0,.089-.01.233v.01l-.007.153-.018.378c-.012.268-.018.418-.018.486v.45a2.189,2.189,0,0,1,.018.324,2.029,2.029,0,0,1-2.214,2.214,1.891,1.891,0,0,1-2.124-2.142v-.54l.018-.612v-.4a2.077,2.077,0,0,0-.459-1.593,3.194,3.194,0,0,0-1.9-.387H84.515c-.382,0-.576.236-.576.7v1.386c0,.9.012,1.393.036,1.512.107.6.41.9.9.9a1.448,1.448,0,0,0,.378-.036,2.94,2.94,0,0,1,.468-.054c.382,0,.576.206.576.612,0,.43-.26.648-.774.648h-.005l-.265-.035-.972-.126a7.928,7.928,0,0,0-.99-.072,10.488,10.488,0,0,0-1.26.09l-.864.108c-.231.029-.269.035-.271.036Zm5.635-11.107a6.047,6.047,0,0,0-2.025.225.905.905,0,0,0-.549.891l-.018.576v2.07c0,.2.036.333.108.387a.743.743,0,0,0,.414.081h1.692a4.709,4.709,0,0,0,2.268-.432,1.853,1.853,0,0,0,.918-1.746C89.339,62.918,88.394,62.228,86.531,62.228Zm38.592,11.106h-.144c-.514,0-.774-.212-.774-.63a.6.6,0,0,1,.162-.423.529.529,0,0,1,.4-.171,2.722,2.722,0,0,1,.486.054,1.448,1.448,0,0,0,.378.036c.609,0,.918-.454.918-1.35V63.632c0-.9-.309-1.35-.918-1.35a2.39,2.39,0,0,0-.378.036,3.264,3.264,0,0,1-.486.054.5.5,0,0,1-.558-.576c0-.418.273-.63.81-.63a2.041,2.041,0,0,1,.234.018l.954.126a8.673,8.673,0,0,0,1.152.072,9.491,9.491,0,0,0,1.008-.054l1.17-.126c.232-.024.535-.036.9-.036a7.039,7.039,0,0,1,2.736.468,4.687,4.687,0,0,1,2.277,2.124,7.162,7.162,0,0,1,.837,3.51,7.4,7.4,0,0,1-.666,3.177,4.563,4.563,0,0,1-1.818,2.079,6.558,6.558,0,0,1-3.348.81c-.266,0-.539-.012-.81-.036L128.4,73.19c-.418-.036-.86-.054-1.314-.054a7.147,7.147,0,0,0-.972.054l-.864.126a.782.782,0,0,0-.126.018Zm4.986-10.962a5.269,5.269,0,0,0-1.737.162c-.209.108-.315.417-.315.918v7.614a.938.938,0,0,0,.81,1.008,8.591,8.591,0,0,0,1.512.072,3.865,3.865,0,0,0,3.132-1.17,5.627,5.627,0,0,0,1.17-3.708,6.114,6.114,0,0,0-.711-3.051,3.269,3.269,0,0,0-1.953-1.611A6.84,6.84,0,0,0,130.109,62.372ZM94.81,73.334H94.7c-.5,0-.756-.218-.756-.648a.5.5,0,0,1,.558-.576c.056,0,.2.011.486.036a1.446,1.446,0,0,0,.378.054c.609,0,.918-.454.918-1.35V63.632c0-.884-.309-1.332-.918-1.332a1.5,1.5,0,0,0-.378.036,2.721,2.721,0,0,1-.486.054.526.526,0,0,1-.4-.171.592.592,0,0,1-.162-.423c0-.418.254-.63.756-.63l.236.016h.009l.024,0c1.679.113,2.458.167,2.526.178h0l.174,0,4.338-.126c.084,0,.4-.018.936-.054.2-.012.371-.018.522-.018.621,0,.936.279.936.828,0,.094-.024.394-.072.918-.036.382-.054.74-.054,1.062a7.108,7.108,0,0,0,.036.882,6.294,6.294,0,0,1,.072.774c0,.454-.218.684-.648.684s-.648-.321-.648-.954v-.936c0-1-.212-1.6-.63-1.782a8.485,8.485,0,0,0-2.412-.2,11.133,11.133,0,0,0-1.512.054.99.99,0,0,0-.774,1.08v1.206c-.012.177-.018.291-.018.36v.234c0,.478.109.756.324.828a1.748,1.748,0,0,0,.432.036h.738c.752,0,1.134-.26,1.134-.774a3.763,3.763,0,0,0-.054-.558,3.979,3.979,0,0,1-.054-.612c0-.478.218-.72.648-.72s.648.26.648.774c0,.095-.041.46-.126,1.116a11.506,11.506,0,0,0-.108,1.458c0,.238.024.656.072,1.278.012.1.045.324.09.63a4.961,4.961,0,0,1,.054.63.574.574,0,0,1-.648.648c-.418,0-.63-.254-.63-.756a5.327,5.327,0,0,1,.045-.576,5.327,5.327,0,0,0,.045-.576c0-.514-.345-.774-1.026-.774h-.81c-.346,0-.561.061-.639.18a1.652,1.652,0,0,0-.117.774V69.5c0,.185.006.438.018.774.012.416.018.668.018.792.012.478.109.781.288.9a2.1,2.1,0,0,0,.936.126h2.448a2.453,2.453,0,0,0,1.458-.315,1.449,1.449,0,0,0,.4-1.179c0-.178-.009-.448-.027-.8s-.027-.622-.027-.8c0-.537.218-.81.648-.81.454,0,.684.279.684.828,0,.221-.012.554-.036.99s-.036.77-.036.99c0,.168.009.419.027.747s.027.58.027.747a.742.742,0,0,1-.828.846c-.135,0-.347-.012-.63-.036-.146-.012-.41-.018-.784-.018-.022,0-.231-.008-1.412-.036-1.055-.024-1.921-.036-2.646-.036-1.123,0-2.237.036-3.312.108a.858.858,0,0,0-.162.018Zm-26.964,0h-.126c-.514-.012-.774-.23-.774-.648a.5.5,0,0,1,.558-.576,3.609,3.609,0,0,1,.486.054,2.56,2.56,0,0,0,.378.036c.609,0,.918-.448.918-1.332V63.632c0-.9-.309-1.35-.918-1.35a2.39,2.39,0,0,0-.378.036,3.264,3.264,0,0,1-.486.054.5.5,0,0,1-.558-.576c0-.418.279-.63.828-.63h.234l.882.126a7.664,7.664,0,0,0,1.026.054c.454,0,1.108-.036,1.944-.108.565-.048,1.177-.072,1.818-.072a4.652,4.652,0,0,1,2.835.765,2.529,2.529,0,0,1,1.017,2.133,2.693,2.693,0,0,1-2.088,2.592,5.937,5.937,0,0,1,1.242.522,2.763,2.763,0,0,1,1.458,2.538,3.164,3.164,0,0,1-1.278,2.637,5.5,5.5,0,0,1-3.42.981c-.518,0-1.178-.03-1.962-.09-.807-.061-1.379-.09-1.746-.09a7.443,7.443,0,0,0-.918.054l-.846.108a.782.782,0,0,0-.126.018Zm3.978-5.976c-.645,0-1.02.145-1.116.432a2.458,2.458,0,0,0-.072.7v2c0,.776.133,1.261.4,1.44a5,5,0,0,0,2.16.27c2.233,0,3.366-.848,3.366-2.52,0-1.541-1.09-2.322-3.24-2.322Zm1.494-5.076a6.279,6.279,0,0,0-2.259.234c-.281.156-.423.562-.423,1.206v1.116a2.418,2.418,0,0,0,.171,1.179c.114.149.431.225.945.225h1.008c2.114,0,3.186-.7,3.186-2.07C75.947,62.918,75.062,62.282,73.319,62.282Zm135.954,6.786H198.238c-.478,0-.72-.212-.72-.63s.242-.63.72-.63h11.034c.478,0,.72.206.72.612C209.993,68.85,209.75,69.068,209.273,69.068Zm-149.958,0H48.281c-.478,0-.72-.212-.72-.63s.242-.63.72-.63H59.315c.478,0,.72.206.72.612C60.035,68.85,59.792,69.068,59.315,69.068Zm24.36-14.491A27.321,27.321,0,0,1,59.909,41a27.33,27.33,0,0,1-1.524-24.241,27.7,27.7,0,0,1,5.922-8.817A27.081,27.081,0,0,1,83.561,0,26.623,26.623,0,0,1,97.214,3.676a27.515,27.515,0,0,1,9.94,9.959,27.306,27.306,0,0,1,1.6,24.127,27.143,27.143,0,0,1-5.884,8.779,27.856,27.856,0,0,1-8.722,5.923A26.347,26.347,0,0,1,83.675,54.577ZM83.561,1.485a14.828,14.828,0,0,0-7.294,1.809,16.586,16.586,0,0,0-5.579,5.18,25.918,25.918,0,0,0-3.58,8.15A41.067,41.067,0,0,0,65.85,27.041a40.9,40.9,0,0,0,1.257,10.378,25.666,25.666,0,0,0,3.6,8.15,16.437,16.437,0,0,0,5.637,5.161,15.093,15.093,0,0,0,7.294,1.79,14.635,14.635,0,0,0,6.1-1.295,16.944,16.944,0,0,0,5.284-3.885,21.65,21.65,0,0,0,4.589-8.4A40.379,40.379,0,0,0,101.232,27a41.983,41.983,0,0,0-1.238-10.588,25.238,25.238,0,0,0-3.541-8.036,16.415,16.415,0,0,0-5.561-5.1A15.031,15.031,0,0,0,83.561,1.485ZM94.34,4.19h0a22.518,22.518,0,0,1,6.256,9.349,39.214,39.214,0,0,1,2.086,13.425,44.741,44.741,0,0,1-.819,8.664,31.518,31.518,0,0,1-2.266,7.217,19.154,19.154,0,0,1-1.562,2.781,18.552,18.552,0,0,1-2.056,2.456,36.627,36.627,0,0,1-3.009,2.686,28.243,28.243,0,0,0,10.454-9.883,26.192,26.192,0,0,0,3.485-13.578,29.185,29.185,0,0,0-1.543-9.464,26.315,26.315,0,0,0-4.38-8.036A22.35,22.35,0,0,0,94.34,4.19ZM72.059,4a28.3,28.3,0,0,0-7.751,5.942,25.329,25.329,0,0,0-4.913,7.941,26.852,26.852,0,0,0,0,18.777,25.674,25.674,0,0,0,4.913,8.017,29.147,29.147,0,0,0,7.751,6.055,23.136,23.136,0,0,1-5.618-5.922,25.874,25.874,0,0,1-3.352-7.9,40.844,40.844,0,0,1-1.123-9.864,34.032,34.032,0,0,1,2.418-13.5A23.747,23.747,0,0,1,72.059,4ZM27.383,54.311a32,32,0,0,1-9.921-1.466,24.617,24.617,0,0,1-8.055-4.4,25.546,25.546,0,0,1-5.122-5.789,26.74,26.74,0,0,1-3.181-7.1A28.909,28.909,0,0,1,0,27.612,26.258,26.258,0,0,1,3.828,13.749a27.142,27.142,0,0,1,10.55-9.884A31.144,31.144,0,0,1,29.25.266a54.694,54.694,0,0,1,9.026.99,34.993,34.993,0,0,0,5.637.725,9.627,9.627,0,0,0,1.638-.153l4.456,13.6h-1.3a38.969,38.969,0,0,0-3.9-6.208,21.912,21.912,0,0,0-4.266-4.208A15.915,15.915,0,0,0,35.8,2.628a19.653,19.653,0,0,0-5.675-.761A20.615,20.615,0,0,0,21.747,3.58a20.041,20.041,0,0,0-6.741,4.837,22.394,22.394,0,0,0-4.437,7.389,26.327,26.327,0,0,0-1.58,9.178,31.04,31.04,0,0,0,2.932,13.54,23.832,23.832,0,0,0,8.056,9.6,19.849,19.849,0,0,0,11.368,3.485A19.619,19.619,0,0,0,39.4,49.931a20.521,20.521,0,0,0,6.683-4.837,29.543,29.543,0,0,0,5.1-7.96h1.561a30.012,30.012,0,0,1-4.009,7.431,23.629,23.629,0,0,1-5.627,5.385,24.264,24.264,0,0,1-7.151,3.27A32.183,32.183,0,0,1,27.383,54.311ZM17.862,3.58a32.138,32.138,0,0,0-7.046,4.246,25.867,25.867,0,0,0-5.142,5.522,23.669,23.669,0,0,0-3.161,6.7A27.739,27.739,0,0,0,2.666,35.8a26.261,26.261,0,0,0,3.466,7.122,22.04,22.04,0,0,0,5.447,5.485A25.037,25.037,0,0,0,18.186,51.7a31.057,31.057,0,0,0,7.75,1.314,32.6,32.6,0,0,1-8.76-3.809,24.975,24.975,0,0,1-6.55-5.9,24.811,24.811,0,0,1-3.981-7.789,32.111,32.111,0,0,1-1.352-9.5,31.466,31.466,0,0,1,.686-6.855,21.687,21.687,0,0,1,2.228-5.809,23.443,23.443,0,0,1,3.9-5.122A38.876,38.876,0,0,1,17.862,3.58ZM234.191,53.473c-1.571,0-4.108-.154-7.541-.457-2.427-.228-4.823-.343-7.123-.343-1.611,0-3.431.051-5.408.153l-5.18.381c-.278,0-.6.013-.952.038l.114-1.181a9,9,0,0,0,5.98-3.161c.96-1.213,1.447-3.66,1.447-7.275V12.873a24.427,24.427,0,0,0-.362-4.893,6.107,6.107,0,0,0-1.428-2.8A9.32,9.32,0,0,0,208.1,2.437V1.256c.881.047,1.457.077,1.485.077l4.457.229c1.435.076,3,.114,4.646.114,2.96,0,6.215-.154,9.674-.457,3.21-.253,5.619-.381,7.16-.381a30.964,30.964,0,0,1,11.045,1.886,25.194,25.194,0,0,1,8.588,5.389,24.223,24.223,0,0,1,5.618,8.34,27.912,27.912,0,0,1,1.981,10.626,28.044,28.044,0,0,1-2.038,10.759,23.536,23.536,0,0,1-5.827,8.417,26.216,26.216,0,0,1-9.026,5.35A34.734,34.734,0,0,1,234.191,53.473ZM240.742,2.7h0a29.4,29.4,0,0,1,3.865,2.226,19.323,19.323,0,0,1,3.2,2.723,22.957,22.957,0,0,1,2.418,3.047A25.73,25.73,0,0,1,253.51,18a32.134,32.134,0,0,1,1.095,8.55,35.411,35.411,0,0,1-1.219,9.331,25.451,25.451,0,0,1-3.5,7.77,18.353,18.353,0,0,1-4.475,4.666,26.261,26.261,0,0,1-6.341,3.181,27.758,27.758,0,0,0,7.541-2.857,25.191,25.191,0,0,0,5.942-4.875,24.707,24.707,0,0,0,4.713-7.741,25.754,25.754,0,0,0,1.571-9.055,26.535,26.535,0,0,0-2.209-10.816,23.359,23.359,0,0,0-6.341-8.474A24.9,24.9,0,0,0,240.742,2.7Zm-7.618-.42c-2.956,0-5.167.673-6.57,2s-2.114,3.447-2.114,6.3l-.076,29.441a21.032,21.032,0,0,0,.876,7.122,6.315,6.315,0,0,0,2.838,3.181,9.737,9.737,0,0,0,4.818,1.123,18.189,18.189,0,0,0,8.074-1.809,19.308,19.308,0,0,0,6.456-5.18,23.7,23.7,0,0,0,4.208-7.979,33.024,33.024,0,0,0,1.447-9.9,29.4,29.4,0,0,0-2.57-12.492,21.036,21.036,0,0,0-7.16-8.665A17.779,17.779,0,0,0,233.124,2.285ZM212.9,2.819,214.919,4.3a5.953,5.953,0,0,1,1.618,1.466,3.308,3.308,0,0,1,.4,1.771c0,.253.006.483.019.686s.019.394.019.571V45.7c0,.152-.006.331-.019.534s-.019.445-.019.724a3.4,3.4,0,0,1-.343,1.732,6.731,6.731,0,0,1-1.676,1.5l-1.486,1.1a58.92,58.92,0,0,1,5.98-.343,48.37,48.37,0,0,1,5.142.266L223.07,50.2a5.444,5.444,0,0,1-1.58-1.447,3.291,3.291,0,0,1-.438-1.79c-.025-.43-.038-.853-.038-1.257V8.8c0-.4.013-.826.038-1.256a3.263,3.263,0,0,1,.362-1.714A6.962,6.962,0,0,1,223.07,4.3l2.019-1.485c-2.234.2-4.182.3-5.79.3-1.512,0-3.434-.09-5.712-.266ZM187,53.244H161.713V52.063a9,9,0,0,0,5.98-3.161c.96-1.213,1.447-3.66,1.447-7.275V12.873a23.64,23.64,0,0,0-.381-5.027A5.905,5.905,0,0,0,167.35,5.18a9.32,9.32,0,0,0-5.637-2.742V1.256H203.95l1.486,14.169h-1.181a23.57,23.57,0,0,0-3.542-7.237A13.218,13.218,0,0,0,195.5,4.056,18.194,18.194,0,0,0,188.183,2.7h-1.066c-3.31,0-5.687.621-7.065,1.847s-2.075,3.4-2.075,6.456V23.956h3.77c3.816,0,6.635-.609,8.379-1.809s2.961-3.4,3.618-6.532h1.143v20.3h-1.143a20.111,20.111,0,0,0-2.056-6.494,7.1,7.1,0,0,0-3.561-3.084,18.2,18.2,0,0,0-6.417-.9h-3.732V41.628a19.657,19.657,0,0,0,.456,4.971,5.949,5.949,0,0,0,1.752,2.761,12.765,12.765,0,0,0,6.817,2.7v1.18ZM166.36,2.7l2.171,1.6a7.014,7.014,0,0,1,1.676,1.485,3.384,3.384,0,0,1,.343,1.752c.025.43.038.853.038,1.256V45.7c0,.4-.013.827-.038,1.257a3.4,3.4,0,0,1-.343,1.732,6.731,6.731,0,0,1-1.676,1.5l-1.486,1.1h11.121l-1.485-1.1a7,7,0,0,1-1.657-1.524,3.263,3.263,0,0,1-.362-1.714c0-.4-.006-.68-.019-.819s-.019-.286-.019-.438V8.8c0-.151.006-.3.019-.456s.019-.422.019-.8a3.316,3.316,0,0,1,.4-1.771A5.973,5.973,0,0,1,176.681,4.3l2.171-1.6Zm25.67,19.614a8.483,8.483,0,0,1-1.657,1.333,18.334,18.334,0,0,1-2.456,1.105,10.37,10.37,0,0,1,4.113,2.475Zm3.657-19.652h0a15.688,15.688,0,0,1,3.5,1.98,15.709,15.709,0,0,1,2.78,3.084l-.838-5.065ZM140.728,53.244H115.438V52.063a9,9,0,0,0,5.98-3.161c.96-1.213,1.447-3.66,1.447-7.275V12.873a23.64,23.64,0,0,0-.381-5.027,5.905,5.905,0,0,0-1.409-2.666,9.32,9.32,0,0,0-5.637-2.742V1.256h42.237l1.486,14.169h-1.181a23.57,23.57,0,0,0-3.542-7.237,13.218,13.218,0,0,0-5.217-4.132A18.194,18.194,0,0,0,141.908,2.7h-1.066c-3.311,0-5.688.621-7.065,1.847s-2.075,3.4-2.075,6.456V23.956h3.77c3.816,0,6.635-.609,8.379-1.809s2.961-3.4,3.618-6.532h1.143v20.3h-1.143a20.111,20.111,0,0,0-2.056-6.494,7.1,7.1,0,0,0-3.561-3.084,18.2,18.2,0,0,0-6.417-.9H131.7V41.628a19.657,19.657,0,0,0,.456,4.971,5.949,5.949,0,0,0,1.752,2.761,12.765,12.765,0,0,0,6.818,2.7v1.18ZM120.085,2.7l2.171,1.6a7.014,7.014,0,0,1,1.676,1.485,3.384,3.384,0,0,1,.343,1.752c.025.43.038.853.038,1.256V45.7c0,.4-.013.827-.038,1.257a3.4,3.4,0,0,1-.343,1.732,6.731,6.731,0,0,1-1.676,1.5l-1.486,1.1h11.121l-1.485-1.1a7,7,0,0,1-1.657-1.524,3.263,3.263,0,0,1-.362-1.714c0-.4-.006-.68-.019-.819s-.019-.286-.019-.438V8.8c0-.151.006-.3.019-.456s.019-.422.019-.8a3.316,3.316,0,0,1,.4-1.771A5.973,5.973,0,0,1,130.406,4.3l2.171-1.6Zm25.67,19.614a8.483,8.483,0,0,1-1.657,1.333,18.334,18.334,0,0,1-2.456,1.105,10.37,10.37,0,0,1,4.113,2.475Zm3.657-19.652h0a15.688,15.688,0,0,1,3.5,1.98,15.709,15.709,0,0,1,2.78,3.084l-.838-5.065Z" transform="translate(0)" fill="#836940"/>
</svg>
